<mxfile host="app.diagrams.net" modified="2024-07-02T12:15:30.060Z" agent="Mozilla/5.0 (Windows NT 10.0; Win64; x64) AppleWebKit/537.36 (KHTML, like Gecko) Chrome/126.0.0.0 Safari/537.36 Edg/126.0.0.0" etag="par93oHOzWb2VfwK7tWN" version="24.4.13" type="device">
  <diagram name="Pagina-1" id="OO8SwucogK0_0EHVCJBC">
    <mxGraphModel dx="1386" dy="759" grid="1" gridSize="10" guides="1" tooltips="1" connect="1" arrows="1" fold="1" page="1" pageScale="1" pageWidth="827" pageHeight="1169" math="0" shadow="0">
      <root>
        <mxCell id="0" />
        <mxCell id="1" parent="0" />
        <mxCell id="-KvWsk95VtiLQVlyK25y-1" value="" style="endArrow=none;html=1;rounded=0;strokeColor=#4F4F4F;strokeWidth=5;" parent="1" edge="1">
          <mxGeometry width="50" height="50" relative="1" as="geometry">
            <mxPoint x="400" y="480" as="sourcePoint" />
            <mxPoint x="650" y="160" as="targetPoint" />
          </mxGeometry>
        </mxCell>
        <mxCell id="-KvWsk95VtiLQVlyK25y-2" value="" style="endArrow=none;html=1;rounded=0;strokeColor=#4F4F4F;strokeWidth=5;" parent="1" edge="1">
          <mxGeometry width="50" height="50" relative="1" as="geometry">
            <mxPoint x="150" y="160" as="sourcePoint" />
            <mxPoint x="400" y="480" as="targetPoint" />
          </mxGeometry>
        </mxCell>
        <mxCell id="-KvWsk95VtiLQVlyK25y-5" value="&lt;font data-font-src=&quot;https://fonts.googleapis.com/css?family=Poppins&quot; face=&quot;Poppins&quot;&gt;System Requirements&lt;/font&gt;" style="rounded=0;whiteSpace=wrap;html=1;strokeColor=#666666;fillColor=#f5f5f5;fontColor=#333333;" parent="1" vertex="1">
          <mxGeometry x="110" y="180" width="120" height="50" as="geometry" />
        </mxCell>
        <mxCell id="-KvWsk95VtiLQVlyK25y-8" value="&lt;font face=&quot;Poppins&quot;&gt;Vehicle Integration &amp;amp; Calibration&lt;/font&gt;" style="rounded=0;whiteSpace=wrap;html=1;strokeColor=#666666;fillColor=#365f91;fontColor=#ffffff;" parent="1" vertex="1">
          <mxGeometry x="570" y="180" width="120" height="50" as="geometry" />
        </mxCell>
        <mxCell id="-KvWsk95VtiLQVlyK25y-9" value="&lt;font data-font-src=&quot;https://fonts.googleapis.com/css?family=Poppins&quot; face=&quot;Poppins&quot;&gt;System Design&lt;/font&gt;" style="rounded=0;whiteSpace=wrap;html=1;strokeColor=#666666;fillColor=#f5f5f5;fontColor=#333333;" parent="1" vertex="1">
          <mxGeometry x="180" y="260" width="120" height="50" as="geometry" />
        </mxCell>
        <mxCell id="-KvWsk95VtiLQVlyK25y-10" value="&lt;font face=&quot;Poppins&quot; data-font-src=&quot;https://fonts.googleapis.com/css?family=Poppins&quot;&gt;HW/SW Integration&lt;/font&gt;" style="rounded=0;whiteSpace=wrap;html=1;strokeColor=#666666;fillColor=#365f91;fontColor=#ffffff;" parent="1" vertex="1">
          <mxGeometry x="500" y="260" width="120" height="50" as="geometry" />
        </mxCell>
        <mxCell id="-KvWsk95VtiLQVlyK25y-11" value="&lt;font face=&quot;Poppins&quot; data-font-src=&quot;https://fonts.googleapis.com/css?family=Poppins&quot;&gt;Coding&lt;/font&gt;" style="rounded=0;whiteSpace=wrap;html=1;fillColor=#f5f5f5;fontColor=#333333;strokeColor=#666666;" parent="1" vertex="1">
          <mxGeometry x="340" y="410" width="120" height="50" as="geometry" />
        </mxCell>
        <mxCell id="-KvWsk95VtiLQVlyK25y-14" value="&lt;font face=&quot;Poppins&quot; data-font-src=&quot;https://fonts.googleapis.com/css?family=Poppins&quot;&gt;System Design&lt;/font&gt;" style="rounded=0;whiteSpace=wrap;html=1;strokeColor=#666666;fillColor=#f5f5f5;fontColor=#333333;" parent="1" vertex="1">
          <mxGeometry x="260" y="340" width="120" height="50" as="geometry" />
        </mxCell>
        <mxCell id="-KvWsk95VtiLQVlyK25y-15" value="&lt;font data-font-src=&quot;https://fonts.googleapis.com/css?family=Poppins&quot; face=&quot;Poppins&quot;&gt;Software Integration&lt;/font&gt;" style="rounded=0;whiteSpace=wrap;html=1;strokeColor=#666666;fillColor=#f5f5f5;fontColor=#333333;" parent="1" vertex="1">
          <mxGeometry x="420" y="340" width="120" height="50" as="geometry" />
        </mxCell>
      </root>
    </mxGraphModel>
  </diagram>
</mxfile>
